<?xml version="1.0" standalone="no"?>
<!DOCTYPE svg PUBLIC "-//W3C//DTD SVG 20010904//EN"
 "http://www.w3.org/TR/2001/REC-SVG-20010904/DTD/svg10.dtd">
<svg version="1.0" xmlns="http://www.w3.org/2000/svg"
 width="463.000000pt" height="395.000000pt" viewBox="0 0 463.000000 395.000000"
 preserveAspectRatio="xMidYMid meet">
<metadata>
Created by potrace 1.16, written by Peter Selinger 2001-2019
</metadata>
<g transform="translate(0.000000,395.000000) scale(0.100000,-0.100000)"
fill="#000000" stroke="none">
<path d="M1502 3648 c-7 -7 -12 -16 -12 -22 0 -26 -60 -80 -157 -142 -164
-104 -282 -193 -314 -238 -16 -22 -39 -69 -50 -105 -17 -52 -31 -74 -65 -105
l-44 -39 16 44 c26 72 14 383 -16 413 -12 12 -16 0 -30 -119 -13 -107 -31
-163 -105 -320 -56 -120 -77 -196 -70 -250 5 -32 1 -46 -17 -68 l-23 -28 4
202 c3 166 1 201 -10 197 -18 -6 -43 -74 -81 -218 -29 -107 -31 -129 -34 -329
-3 -118 -6 -217 -9 -219 -3 -3 -5 12 -5 34 0 47 -33 171 -59 223 -50 97 -147
199 -127 133 3 -10 12 -87 21 -172 25 -255 42 -324 103 -421 26 -41 29 -55 35
-174 16 -323 108 -587 291 -835 60 -82 241 -263 257 -258 8 3 -19 37 -77 95
-207 206 -320 393 -396 658 -35 124 -49 226 -49 378 -1 145 -1 148 26 187 15
22 72 81 126 131 157 144 219 248 219 365 0 69 -18 73 -49 10 -14 -28 -69 -96
-126 -155 -56 -58 -114 -124 -129 -146 l-26 -40 6 35 c9 46 54 170 88 241 30
62 60 82 201 134 64 24 173 79 185 94 3 3 40 37 83 74 68 61 94 97 69 97 -18
0 -180 -60 -232 -85 -30 -15 -83 -47 -117 -71 -35 -24 -63 -40 -63 -36 0 16
118 158 148 179 55 36 155 53 320 53 173 0 234 9 317 49 61 29 135 89 135 110
0 15 -8 14 -38 -8 -45 -32 -101 -41 -247 -41 -77 0 -180 -5 -230 -10 -49 -5
-91 -8 -93 -6 -7 8 156 108 243 151 225 109 442 153 690 141 314 -15 580 -112
830 -305 33 -25 68 -54 77 -63 10 -10 25 -18 35 -18 14 0 14 2 -3 21 -30 33
-173 142 -240 182 -222 133 -437 195 -706 204 -259 9 -488 -35 -669 -128 -45
-23 -89 -40 -89 -35 0 2 30 22 66 46 91 59 168 140 203 214 45 95 51 152 13
114z m-42 -128 c0 -5 -29 -40 -64 -77 -46 -48 -99 -89 -184 -141 -67 -40 -144
-94 -173 -120 -29 -26 -51 -42 -48 -37 3 6 13 26 22 46 23 50 105 124 222 200
55 36 125 82 155 102 59 38 70 43 70 27z m-591 -330 c0 -65 -5 -101 -23 -151
-23 -65 -90 -176 -141 -234 l-26 -30 4 45 c2 28 33 110 76 208 46 102 77 187
84 229 14 83 25 56 26 -67z m665 -80 c-5 -5 -36 -19 -69 -31 -50 -18 -94 -23
-270 -29 -115 -4 -221 -11 -235 -15 l-25 -8 27 22 c61 49 173 67 438 70 94 1
141 -2 134 -9z m-936 -206 c4 -144 -27 -337 -70 -429 l-18 -40 4 125 c6 129
20 217 57 353 12 42 22 77 23 77 1 0 2 -39 4 -86z m444 -14 c-70 -67 -119 -95
-272 -157 l-105 -42 45 40 c86 78 214 155 330 200 69 27 70 23 2 -41z m-226
-322 c-8 -29 -29 -74 -45 -100 -28 -44 -247 -268 -263 -268 -10 0 18 77 47
126 14 23 76 97 139 163 63 67 118 131 122 144 16 46 16 -12 0 -65z m-414 -32
c38 -75 58 -183 57 -304 -1 -139 -8 -151 -46 -71 -35 74 -59 179 -68 294 -3
44 -8 105 -11 135 l-5 55 22 -25 c11 -14 35 -51 51 -84z"/>
<path d="M3063 3314 c-3 -9 11 -50 33 -95 l38 -79 151 0 151 0 38 79 c22 45
36 86 33 95 -8 20 -43 20 -77 1 -33 -19 -62 -19 -104 2 -33 15 -39 15 -90 -2
-53 -18 -57 -18 -91 -2 -45 21 -74 22 -82 1z"/>
<path d="M3077 3030 c-87 -116 -147 -265 -147 -364 0 -64 34 -138 84 -186 l37
-35 122 -4 122 -3 65 -46 c36 -25 71 -52 78 -61 8 -10 12 -11 12 -3 0 7 10 17
23 22 19 9 18 9 -8 5 -24 -4 -41 4 -87 38 l-57 42 87 5 c53 4 99 12 119 23 21
11 42 15 63 11 29 -6 30 -7 14 -25 -10 -11 -15 -21 -12 -24 3 -3 18 14 33 37
16 24 21 37 12 29 -10 -8 -27 -11 -42 -7 l-24 6 24 36 c53 78 56 178 10 300
-25 68 -35 84 -103 187 l-45 67 -171 0 -172 0 -37 -50z m231 -50 c2 -18 14
-30 42 -43 38 -18 58 -47 45 -67 -9 -15 -42 -12 -49 5 -8 22 -112 21 -120 -1
-14 -37 3 -54 54 -54 27 0 60 -4 74 -10 27 -10 56 -56 56 -89 0 -27 -44 -77
-75 -85 -18 -5 -25 -13 -25 -30 0 -41 -48 -41 -54 0 -2 10 -12 24 -24 30 -38
19 -63 47 -60 68 4 28 21 30 48 6 15 -13 37 -20 65 -20 46 0 69 17 63 47 -2
14 -16 19 -63 23 -73 7 -98 20 -115 60 -20 48 -3 91 46 116 22 11 38 26 36 32
-6 18 18 43 37 40 9 -2 17 -14 19 -28z"/>
<path d="M1045 2824 l-25 -27 0 -453 c0 -447 0 -454 20 -454 20 0 20 7 20 396
0 260 3 393 10 389 5 -3 96 -181 202 -396 149 -302 196 -389 210 -389 14 0 62
88 214 393 107 215 200 394 205 395 5 2 9 -153 9 -392 l0 -396 85 0 85 0 0
444 0 443 -23 34 c-18 27 -31 35 -59 37 -65 6 -83 -22 -271 -402 l-172 -348
-174 343 c-187 373 -212 409 -276 409 -26 0 -43 -7 -60 -26z"/>
<path d="M3850 2229 c-30 -15 -102 -47 -159 -70 -119 -47 -125 -47 -276 1 -77
25 -119 33 -180 33 -73 1 -87 -3 -165 -40 -116 -55 -356 -230 -449 -327 -50
-52 -27 -44 33 12 68 62 90 80 205 167 266 201 357 217 650 114 87 -30 106
-35 83 -20 -10 6 -6 10 15 15 39 10 302 126 309 137 8 14 -7 9 -66 -22z"/>
<path d="M800 1440 l0 -100 30 0 c29 0 30 2 31 48 0 41 2 44 11 25 10 -22 58
-34 58 -15 0 5 6 17 14 28 11 14 14 15 14 4 -1 -8 0 -32 0 -52 2 -33 5 -38 27
-38 l25 0 0 100 0 100 -33 0 c-29 0 -36 -5 -51 -37 l-18 -38 -19 38 c-17 32
-24 37 -54 37 l-35 0 0 -100z"/>
<path d="M1154 1516 c-25 -21 -29 -31 -29 -76 0 -44 4 -55 28 -76 47 -40 150
-27 127 16 -8 15 -17 18 -39 14 -24 -5 -32 -1 -46 20 -11 17 -15 35 -11 52 6
23 11 25 49 22 39 -3 42 -1 42 22 0 23 -4 25 -46 28 -38 2 -52 -2 -75 -22z"/>
<path d="M1315 1532 c-6 -4 -10 -48 -10 -100 l0 -93 30 3 c17 2 31 9 31 16 1
6 2 22 3 35 2 19 5 17 22 -15 16 -31 25 -38 49 -38 35 0 38 12 10 47 -18 23
-19 28 -5 43 23 25 19 76 -7 94 -23 16 -105 22 -123 8z"/>
<path d="M1513 1516 c-24 -21 -28 -32 -28 -76 0 -68 33 -100 101 -100 54 0 89
29 99 83 18 94 -98 157 -172 93z"/>
<path d="M1733 1516 c-24 -21 -28 -32 -28 -76 0 -45 4 -55 29 -77 25 -21 37
-24 78 -21 58 6 63 10 49 37 -9 16 -18 19 -39 15 -39 -8 -66 24 -57 66 7 30 9
31 48 28 34 -2 42 0 45 16 9 42 -80 51 -125 12z"/>
<path d="M1885 1530 c-3 -5 -4 -50 -3 -100 l3 -90 27 0 c24 0 27 4 30 38 l3
37 20 -37 c14 -30 25 -38 45 -38 38 0 42 9 21 44 -17 27 -18 33 -5 50 21 30
18 72 -8 90 -25 18 -123 22 -133 6z"/>
<path d="M2067 1533 c-4 -6 -2 -127 2 -185 1 -5 35 -8 77 -8 72 0 75 1 72 23
-3 19 -10 22 -50 25 -58 4 -64 22 -8 22 36 0 40 3 40 24 0 21 -5 25 -37 28
-51 4 -48 22 5 26 37 3 42 6 42 28 0 23 -2 24 -69 24 -39 0 -72 -3 -74 -7z"/>
<path d="M2247 1533 c-4 -3 -7 -49 -7 -101 l0 -94 71 4 c86 5 109 24 109 93 0
57 -7 73 -41 90 -28 15 -120 21 -132 8z"/>
<path d="M2520 1515 c0 -21 5 -25 30 -25 l30 0 0 -75 0 -75 30 0 30 0 0 75 0
75 30 0 c25 0 30 4 30 25 0 25 -1 25 -90 25 -89 0 -90 0 -90 -25z"/>
<path d="M2743 1516 c-24 -21 -28 -32 -28 -75 0 -64 24 -91 89 -98 58 -7 91
13 107 65 9 31 8 45 -5 75 -25 61 -111 78 -163 33z"/>
<path d="M2963 1525 c-47 -33 -33 -88 26 -106 55 -16 53 -33 -3 -26 -39 6 -46
4 -51 -14 -9 -28 -4 -31 55 -37 67 -6 102 16 98 61 -2 27 -10 35 -45 52 -52
25 -55 40 -7 32 30 -5 36 -3 43 16 6 16 4 24 -8 29 -29 12 -86 8 -108 -7z"/>
<path d="M1240 676 c0 -14 96 -58 210 -98 285 -98 624 -102 914 -11 85 26 104
37 88 47 -6 3 -41 -5 -79 -18 -321 -114 -763 -87 -1065 65 -66 33 -68 34 -68
15z"/>
</g>
</svg>
